<?xml version="1.0" encoding="UTF-8" standalone="no"?>
<!DOCTYPE svg PUBLIC "-//W3C//DTD SVG 1.1//EN" "http://www.w3.org/Graphics/SVG/1.1/DTD/svg11.dtd">
 <svg width="100%" height="100%" viewBox="0 0 342 336" version="1.1" xmlns="http://www.w3.org/2000/svg"
    xmlns:xlink="http://www.w3.org/1999/xlink" xml:space="preserve" xmlns:serif="http://www.serif.com/"
    style="fill-rule:evenodd;clip-rule:evenodd;stroke-linecap:round;stroke-linejoin:round;stroke-miterlimit:1.5;">
    <g transform="matrix(1,0,0,1,-213.057,-352.07)">
        <path
            d="M262.546,633.689C265.209,634.335 267.953,634.99 270.77,635.653C267.258,638.51 267.946,639.086 265.77,641.38C262.983,640.349 259.947,639.847 261.185,636.31C261.442,635.577 261.882,634.714 262.546,633.689Z"
            class="mac-shadow" />
    </g>
    <g transform="matrix(1,0,0,1,-213.057,-352.07)">
        <path
            d="M469.652,358.709C469.652,358.709 466.586,354.04 457.985,353.746C387.932,351.352 316.021,355.077 266.799,368.691C263.357,369.643 257.952,372.418 256.148,376.942C232.985,435.018 215.163,566.976 214.065,606.042C213.746,617.407 222.871,622.852 229.581,624.915C263.568,635.365 351.295,653.947 414.705,664.417C430.06,666.952 437.829,662.579 445.571,660.092C452.297,657.93 463.511,658.317 487.097,635.625C501.772,621.506 523.999,597.421 532.27,586.109C540.54,574.797 554.127,535.083 553.668,523.232"
            style="fill:white;stroke:black;stroke-width:2px;" />
    </g>
    <g transform="matrix(1,0,0,1,-213.057,-352.07)">
        <path
            d="M459.825,365.256C447.835,402.698 427.962,532.902 420.547,608.994C420.3,611.53 422.23,612.374 426.209,610.881C462.815,597.146 537.857,540.96 553.091,522.766C554.078,509.466 555.384,489.399 542.083,457.579C536.89,445.158 511.98,403.929 485.714,366.246C482.103,361.066 477.022,361.902 473.569,360.154C468.235,357.455 462.084,358.204 459.825,365.256Z"
            class="mac-light" style="stroke:black;stroke-width:2px;" />
    </g>
    <g transform="matrix(1,0,0,1,-213.057,-352.07)">
        <path
            d="M421.708,597.594C570.229,519.02 542.809,471.558 494.363,378.848C517.254,412.705 537.465,446.534 542.083,457.579C555.384,489.399 554.078,509.466 553.091,522.766C537.857,540.96 462.815,597.146 426.209,610.881C422.23,612.374 420.3,611.53 420.547,608.994C420.906,605.315 421.294,601.51 421.708,597.594Z"
            class="mac-shadow" />
    </g>
    <g transform="matrix(1,0,0,1,-213.057,-352.07)">
        <path
            d="M459.825,365.256C447.835,402.698 427.962,532.902 420.547,608.994C420.3,611.53 422.23,612.374 426.209,610.881C462.815,597.146 537.857,540.96 553.091,522.766C554.078,509.466 555.384,489.399 542.083,457.579C536.89,445.158 511.98,403.929 485.714,366.246C482.103,361.066 477.022,361.902 473.569,360.154C468.235,357.455 462.084,358.204 459.825,365.256Z"
            style="fill:none;stroke:black;stroke-width:2px;" />
    </g>
    <g transform="matrix(1,0,0,1,-213.057,-352.07)">
        <path
            d="M487.097,635.625C492.437,618.568 494.512,610.817 492.941,590.873C492.435,584.456 494.803,580.688 499.543,577.668C519.603,564.885 543.031,546.017 552.15,532.554"
            style="fill:none;stroke:black;stroke-width:2px;" />
    </g>
    <g transform="matrix(1,0,0,1,-213.057,-352.07)">
        <path
            d="M215.94,580.695C260.072,594.613 397.34,614.33 411.342,615.303C417.895,615.759 418.654,613.586 420.526,609.124"
            style="fill:none;stroke:black;stroke-width:2px;" />
    </g>
    <g transform="matrix(1,0,0,1,-213.057,-352.07)">
        <path
            d="M261.793,399.121C255.577,424.46 245.638,459.917 234.545,551.348C234.19,554.279 233.108,558.758 237.844,559.474C248.881,561.141 372.831,578.388 386.56,580.422C391.28,581.122 392.48,580.608 392.888,577.298C400.314,517.041 404.745,482.076 424.765,389.835C425.27,387.506 423.791,386.207 420.526,386.256C366.191,387.079 308.953,388.086 268.626,393.116C265.163,393.548 263.011,394.152 261.793,399.121Z"
            style="fill:rgb(211,235,242);stroke:black;stroke-width:2px;" />
    </g>
    <g transform="matrix(0.937721,0,0,0.945149,-192.98,-325.655)">
        <path
            d="M261.793,399.121C255.577,424.46 245.638,459.917 234.545,551.348C234.19,554.279 233.108,558.758 237.844,559.474C248.881,561.141 372.831,578.388 386.56,580.422C391.28,581.122 392.48,580.608 392.888,577.298C400.314,517.041 404.745,482.076 424.765,389.835C425.27,387.506 423.791,386.207 420.526,386.256C366.191,387.079 308.953,388.086 268.626,393.116C265.163,393.548 263.011,394.152 261.793,399.121Z"
            style="fill:rgb(227,243,247);" />
    </g>
    <g transform="matrix(1,0,0,1,-213.057,-352.07)">
        <path
            d="M217.944,617.768C283.636,637.497 369.737,653.044 411.273,658.427C414.746,658.877 415.757,655.924 416.188,651.004C419.33,615.139 417.554,613.459 422.649,611.619"
            style="fill:none;stroke:black;stroke-width:2px;" />
    </g>
    <g transform="matrix(1,0,0,1,-213.057,-352.07)">
        <path
            d="M260.254,592.108C259.812,596.45 259.591,603.218 259.637,605.784C259.663,607.21 261.096,607.909 263.584,608.444C277.294,611.393 324.281,619.985 331.909,621.407C334.088,621.813 334.892,620.037 334.991,618.46C335.196,615.203 335.264,607.763 335.353,604.856"
            style="fill:none;stroke:black;stroke-width:2px;" />
    </g>
    <g transform="matrix(1,0,0,1,-213.057,-352.07)">
        <path
            d="M357.739,628.81C358.371,621.433 362.604,614.117 372.428,615.363C374.658,615.646 389.897,617.974 393.13,618.483C400.707,619.675 404.417,630.27 403.679,636.213C402.94,642.155 399.056,650.26 391.342,649.343C383.628,648.426 375.785,647.38 369.403,646.236C364.72,645.395 356.905,638.554 357.739,628.81Z"
            class="mac-light" style="stroke:black;stroke-width:2px;" />
    </g>
    <g transform="matrix(0.522882,0,0,0.88656,-183.693,-310.255)">
        <path
            d="M358.181,630.106C358.813,622.729 363.288,615.895 373.112,617.141C375.343,617.424 391.039,619.359 394.272,619.867C401.849,621.059 404.417,630.27 403.679,636.213C402.94,642.155 401.655,650.278 389.687,649.354C381.884,648.751 375.785,647.38 369.403,646.236C364.72,645.395 357.346,639.85 358.181,630.106Z"
            class="mac-light" style="stroke:black;stroke-width:2.75px;" />
    </g>
    <g transform="matrix(1,0,0,1,-213.057,-352.07)">
        <path
            d="M231.534,604.633C232.562,589.126 239.327,591.909 238.123,606.23C236.936,620.359 230.644,618.054 231.534,604.633Z"
            style="stroke:black;stroke-width:0.5px;" />
    </g>
    <g transform="matrix(1,0,0,1,-80.1967,-333.205)">
        <path
            d="M231.534,604.633C232.344,597.787 239.058,599.356 238.123,606.23C237.33,612.062 230.802,610.822 231.534,604.633Z"
            style="stroke:black;stroke-width:0.5px;" />
    </g>
    <g transform="matrix(1,0,0,1,-81.123,-320.631)">
        <path
            d="M231.534,604.633C232.344,597.787 239.058,599.356 238.123,606.23C237.33,612.062 230.802,610.822 231.534,604.633Z"
            style="stroke:black;stroke-width:0.5px;" />
    </g>
    <g transform="matrix(1.24787,0,0,1.23094,-159.944,-470.625)">
        <path
            d="M231.534,604.633C232.344,597.787 239.058,599.356 238.123,606.23C237.33,612.062 230.802,610.822 231.534,604.633Z"
            style="fill:none;stroke:black;stroke-width:1.61px;" />
    </g>
    <g transform="matrix(1,0,0,1,-213.057,-352.07)">
        <path
            d="M291.162,605.032C292.683,605.251 297.854,606.09 299.561,606.406C301.374,606.741 301.168,609.993 299.168,609.729C296.457,609.371 292.913,608.818 291.003,608.533C288.504,608.16 288.897,604.706 291.162,605.032Z"
            style="fill:none;stroke:black;stroke-width:2px;" />
    </g>
    <g transform="matrix(1,0,0,1,-213.452,-352.032)">
        <path d="M346.17,623.049L346.17,626.297" style="fill:none;stroke:black;stroke-width:1px;" />
    </g>
    <g transform="matrix(1,0,0,1,-213.057,-352.07)">
        <path
            d="M344.523,624.266C343.267,626.551 344.457,628.343 345.703,628.414C346.948,628.485 348.682,626.845 347.183,624.674"
            style="fill:none;stroke:black;stroke-width:1px;" />
    </g>
    <g transform="matrix(1,0,0,1,-213.057,-352.07)">
        <path
            d="M259.41,632.726C255.559,637.221 252.347,645.24 250.341,650.687C249.873,651.956 250.808,653.394 252.222,653.764C299.237,666.063 381.988,685.646 385.055,686.216C388.122,686.786 395.516,689.024 403.802,682.579C408.536,679.052 416.085,672.439 422.375,665.378C414.906,664.617 407.637,663.254 404.608,662.888C403.289,666.121 400.353,667.692 398.455,668.549C395.024,670.098 392.551,669.647 389.784,669.04C329.843,655.881 269.183,642.643 265.77,641.38C262.357,640.118 258.571,639.648 262.717,633.429C262.668,633.52 259.365,632.858 259.41,632.726Z"
            class="mac-light" />
    </g>
    <g transform="matrix(1,0,0,1,-213.057,-352.07)">
        <path
            d="M259.41,632.726C255.559,637.221 252.347,645.24 250.341,650.687C249.873,651.956 250.808,653.394 252.222,653.764C299.237,666.063 381.988,685.646 385.055,686.216C388.122,686.786 395.516,689.024 403.802,682.579C408.536,679.052 416.085,672.439 422.375,665.378C414.906,664.617 407.637,663.254 404.608,662.888C403.289,666.121 400.353,667.692 398.455,668.549C395.024,670.098 392.551,669.647 389.784,669.04C329.843,655.881 269.183,642.643 265.77,641.38C262.357,640.118 258.571,639.648 262.717,633.429C262.668,633.52 259.365,632.858 259.41,632.726Z"
            style="fill:none;stroke:black;stroke-width:2px;" />
    </g>
    <g transform="matrix(1,0,0,1,-213.057,-352.07)">
        <path
            d="M262.716,633.43C261.956,634.569 261.463,635.516 261.185,636.31C258.161,643.221 253.274,650.195 260.706,652.09C269.692,654.382 365.703,676.992 377.929,680.428C389.318,683.628 400.151,681.551 405.773,674.76C408.99,670.874 412.957,667.696 403.011,665.425C403.645,664.718 404.203,663.881 404.608,662.888C407.637,663.254 414.906,664.617 422.375,665.378C416.085,672.439 408.536,679.052 403.802,682.579C395.516,689.024 388.122,686.786 385.055,686.216C381.988,685.646 299.237,666.063 252.222,653.764C250.808,653.394 249.873,651.956 250.341,650.687C252.347,645.24 255.559,637.221 259.41,632.726C259.365,632.858 262.647,633.515 262.716,633.43Z"
            class="mac-shadow" />
    </g>
    <g transform="matrix(1,0,0,1,-213.057,-352.07)">
        <path d="M266.173,640.842C268.35,638.548 267.258,638.51 270.77,635.653"
            style="fill:none;stroke:black;stroke-width:2px;" />
    </g>
    <g transform="matrix(1,0,0,1,-213.057,-352.07)">
        <path
            d="M259.41,632.726C255.559,637.221 252.347,645.24 250.341,650.687C249.873,651.956 250.808,653.394 252.222,653.764C299.237,666.063 381.988,685.646 385.055,686.216C388.122,686.786 395.516,689.024 403.802,682.579C408.536,679.052 416.085,672.439 422.375,665.378C414.906,664.617 407.637,663.254 404.608,662.888C403.289,666.121 400.353,667.692 398.455,668.549C395.024,670.098 392.551,669.647 389.784,669.04C329.843,655.881 269.183,642.643 265.77,641.38C262.357,640.118 258.571,639.648 262.717,633.429C262.668,633.52 259.365,632.858 259.41,632.726Z"
            style="fill:none;stroke:black;stroke-width:2px;" />
    </g>
</svg>
